<svg width="39" height="39" viewBox="0 0 39 39" fill="none" xmlns="http://www.w3.org/2000/svg">
<g clip-path="url(#clip0_35_441)">
<path d="M39 19.5C39 8.73054 30.2695 0 19.5 0C8.73054 0 0 8.73054 0 19.5C0 28.6447 6.29616 36.3184 14.7896 38.4259V25.4592H10.7687V19.5H14.7896V16.9322C14.7896 10.2952 17.7934 7.2189 24.3095 7.2189C25.545 7.2189 27.6767 7.46148 28.5488 7.70328V13.1048C28.0886 13.0564 27.2891 13.0322 26.2961 13.0322C23.0989 13.0322 21.8634 14.2436 21.8634 17.3924V19.5H28.2329L27.1385 25.4592H21.8634V38.8573C31.519 37.6912 39.0008 29.47 39.0008 19.5H39Z" fill="#0866FF"/>
<path d="M27.1374 25.4592L28.2318 19.5H21.8623V17.3924C21.8623 14.2436 23.0978 13.0322 26.295 13.0322C27.288 13.0322 28.0875 13.0564 28.5477 13.1048V7.70325C27.6756 7.46067 25.5439 7.21887 24.3084 7.21887C17.7923 7.21887 14.7885 10.2952 14.7885 16.9322V19.5H10.7676V25.4592H14.7885V38.4259C16.297 38.8003 17.8749 39 19.4989 39C20.2984 39 21.087 38.9508 21.8615 38.8572V25.4592H27.1367H27.1374Z" fill="white"/>
</g>
<defs>
<clipPath id="clip0_35_441">
<rect width="39" height="39" fill="white"/>
</clipPath>
</defs>
</svg>
